<?xml version="1.0" encoding="utf-8"?>
<!-- Generator: Adobe Illustrator 25.0.0, SVG Export Plug-In . SVG Version: 6.00 Build 0)  -->
<svg version="1.1" id="Layer_1" xmlns="http://www.w3.org/2000/svg" xmlns:xlink="http://www.w3.org/1999/xlink" x="0px" y="0px"
	 width="270px" height="80px" viewBox="0 0 270 80" style="enable-background:new 0 0 270 80;" xml:space="preserve">
<style type="text/css">
	.st0{fill:#6D6E70;}
	.st1{fill:#F6921E;}
	.st2{fill:#808184;}
	.st3{fill:#26A9E0;}
	.st4{fill:#00A69C;}
</style>
<g>
	<g>
		<path class="st0" d="M21.5,44l-10-11.1H9.8V44H0V0h9.8v23.8h1.3l9.7-10.5h11.8L19.2,27.9L34,44H21.5z"/>
		<path class="st0" d="M45.2,1.6c1,1.1,1.6,2.3,1.6,3.8c0,1.5-0.5,2.8-1.6,3.8c-1,1-2.4,1.5-3.9,1.5c-1.6,0-2.9-0.5-3.9-1.5
			c-1-1-1.5-2.3-1.5-3.8s0.5-2.8,1.5-3.8c1-1,2.3-1.6,3.9-1.6C42.8,0,44.2,0.5,45.2,1.6z M36.5,44V14.2H46V44H36.5z"/>
		<path class="st0" d="M74.7,13.1l-0.4,9.8h-1.8c-7,0-10.6,3.8-10.6,11.5V44h-9.8V13.3H62v5.9c2.5-4.2,6.1-6.3,10.6-6.3
			C73.4,12.9,74.1,13,74.7,13.1z"/>
		<path class="st0" d="M109.5,44h-9.8v-2.4c-2.5,2.2-5.7,3.4-9.5,3.4c-4.2,0-7.7-1.5-10.6-4.6c-2.9-3-4.4-6.9-4.4-11.7
			c0-4.7,1.5-8.6,4.4-11.7c2.9-3.1,6.4-4.6,10.6-4.6c3.9,0,7,1.1,9.5,3.4v-2.4h9.8V44z M97.5,34.4c1.5-1.5,2.2-3.4,2.2-5.7
			c0-2.3-0.7-4.2-2.2-5.7c-1.5-1.5-3.2-2.3-5.3-2.3c-2.2,0-3.9,0.7-5.3,2.2c-1.4,1.5-2.1,3.4-2.1,5.7c0,2.4,0.7,4.3,2.1,5.7
			c1.4,1.5,3.2,2.2,5.3,2.2C94.2,36.6,96,35.9,97.5,34.4z"/>
		<path class="st0" d="M115,44V0h9.8v44H115z"/>
		<path class="st0" d="M129.7,44V13.3h9.7V44H129.7z"/>
		<path class="st0" d="M166.3,44l-10-11.1h-1.8V44h-9.8V0h9.8v23.8h1.3l9.7-10.5h11.8L164,27.9L178.8,44H166.3z"/>
		<path class="st0" d="M206.3,17.1c3.3,3,4.9,6.9,4.9,11.6c0,4.8-1.6,8.7-4.9,11.7c-3.3,3-7.2,4.5-11.9,4.5c-4.8,0-8.8-1.5-12.1-4.5
			c-3.3-3-4.9-6.9-4.9-11.7c0-4.7,1.6-8.6,4.9-11.6c3.3-3,7.3-4.5,12.1-4.5C199.1,12.5,203,14,206.3,17.1z M199.6,34.4
			c1.5-1.5,2.2-3.4,2.2-5.7s-0.7-4.2-2.2-5.7c-1.5-1.5-3.2-2.2-5.2-2.2c-2,0-3.8,0.7-5.3,2.2s-2.3,3.4-2.3,5.7s0.7,4.2,2.2,5.7
			c1.5,1.5,3.3,2.2,5.3,2.2C196.4,36.6,198.1,35.9,199.6,34.4z"/>
		<path class="st0" d="M264.6,17.1c3.3,3,4.9,6.9,4.9,11.6c0,4.8-1.6,8.7-4.9,11.7s-7.2,4.5-11.9,4.5c-4.8,0-8.8-1.5-12.1-4.5
			c-3.3-3-4.9-6.9-4.9-11.7c0-4.7,1.6-8.6,4.9-11.6c3.3-3,7.3-4.5,12.1-4.5C257.4,12.5,261.3,14,264.6,17.1z M257.9,34.4
			c1.5-1.5,2.2-3.4,2.2-5.7s-0.7-4.2-2.2-5.7c-1.5-1.5-3.2-2.2-5.2-2.2c-2,0-3.8,0.7-5.3,2.2s-2.3,3.4-2.3,5.7s0.7,4.2,2.2,5.7
			c1.5,1.5,3.3,2.2,5.3,2.2C254.7,36.6,256.4,35.9,257.9,34.4z"/>
		<polygon class="st0" points="228.4,12.5 228.4,4.3 218.6,4.3 218.6,12.5 211.3,12.5 211.3,21.1 218.6,21.1 218.6,24.6 218.6,32.7 
			218.6,44.9 228.4,44.9 228.4,44.8 228.4,31.7 228.4,24.6 228.4,21.1 235.7,21.1 235.7,12.5 		"/>
	</g>
	<polygon class="st1" points="0,80 0,51.7 269.5,51.7 	"/>
	<g>
		<path class="st2" d="M193.5,66.7c0.8,1,1.1,2.4,0.8,4c-0.3,1.6-0.9,3-2,4c-1.1,1-2.4,1.5-3.9,1.5c-1.5,0-2.5-0.5-3.1-1.6l-0.3,1.3
			H181l3.5-14.9h3.9l-1.2,5.1c0.8-0.6,1.8-0.9,2.9-0.9C191.6,65.2,192.7,65.7,193.5,66.7z M189.6,72.4c0.5-0.4,0.7-1,0.9-1.6
			c0.1-0.7,0-1.2-0.3-1.7c-0.3-0.4-0.8-0.7-1.4-0.7c-0.6,0-1.2,0.2-1.6,0.7c-0.5,0.4-0.8,1-0.9,1.7c-0.1,0.6,0,1.2,0.4,1.6
			c0.3,0.4,0.8,0.7,1.4,0.7C188.5,73,189.1,72.8,189.6,72.4z"/>
		<path class="st2" d="M198,79.5h-4l2.3-3.8l-1.8-10.2h4l0.7,5.4l3.3-5.4h4.4L198,79.5z"/>
		<path class="st2" d="M213,72.4c0.1,0.4,0.3,0.6,0.6,0.8c0.3,0.2,0.6,0.3,1,0.3c0.3,0,0.5-0.1,0.7-0.2c0.2-0.1,0.3-0.3,0.3-0.4
			c0-0.2-0.1-0.3-0.2-0.4c-0.2-0.1-0.5-0.2-0.9-0.3l-1.1-0.3c-1.7-0.4-2.6-1.4-2.6-2.9c0-1.1,0.4-2.1,1.3-2.8
			c0.9-0.7,2.1-1.1,3.5-1.1c1.3,0,2.4,0.3,3.2,0.8c0.9,0.5,1.4,1.3,1.6,2.3l-3.4,0.6c-0.1-0.3-0.2-0.6-0.5-0.8
			c-0.3-0.2-0.6-0.3-1.1-0.3c-0.6,0-0.9,0.2-0.9,0.6c0,0.3,0.2,0.5,0.7,0.7l1.2,0.4c1,0.3,1.7,0.7,2.2,1.2c0.5,0.5,0.7,1.1,0.7,1.9
			c0,1.2-0.5,2.1-1.4,2.7c-0.9,0.7-2.1,1-3.6,1c-1.3,0-2.4-0.3-3.3-0.8c-0.9-0.5-1.5-1.3-1.8-2.4L213,72.4z"/>
		<path class="st2" d="M219.8,76l2.4-10.5h3.9L223.7,76H219.8z M226.4,60.9c0.4,0.4,0.6,0.9,0.6,1.5c0,0.6-0.2,1.1-0.6,1.5
			c-0.4,0.4-0.9,0.6-1.6,0.6c-0.6,0-1.1-0.2-1.5-0.6c-0.4-0.4-0.6-0.9-0.6-1.5c0-0.6,0.2-1.1,0.6-1.5s0.9-0.6,1.5-0.6
			C225.5,60.3,226,60.5,226.4,60.9z"/>
		<path class="st2" d="M244.3,66.4c0.6,0.8,0.8,1.8,0.5,3.1l-1.5,6.5h-3.9l1.3-5.7c0.1-0.5,0-0.9-0.2-1.1s-0.5-0.4-0.9-0.4
			c-0.5,0-0.9,0.2-1.3,0.5c-0.4,0.3-0.7,0.8-0.8,1.4l-1.3,5.4h-3.9l1.3-5.7c0.1-0.5,0-0.9-0.2-1.1c-0.2-0.3-0.5-0.4-1-0.4
			c-0.5,0-0.9,0.2-1.2,0.5s-0.6,0.8-0.8,1.3l-1.3,5.5h-3.9l2.4-10.5h3.9l-0.2,0.9c0.8-0.8,1.8-1.2,3-1.2c0.8,0,1.5,0.2,2,0.5
			c0.6,0.3,1,0.8,1.2,1.4c1-1.2,2.3-1.8,3.8-1.8C242.7,65.2,243.6,65.6,244.3,66.4z"/>
		<path class="st2" d="M256.3,74.9c-0.4,1.6-1.2,2.8-2.4,3.7c-1.2,0.9-2.7,1.3-4.4,1.3c-1.3,0-2.4-0.3-3.3-0.8
			c-0.9-0.5-1.6-1.3-1.9-2.3l3.6-1c0.4,0.7,1,1.1,1.8,1.1c0.7,0,1.3-0.2,1.8-0.6c0.6-0.4,0.9-0.9,1.1-1.6l0.1-0.3
			c-0.9,0.6-1.8,0.9-3,0.9c-1.5,0-2.6-0.5-3.4-1.4s-1.1-2.2-0.8-3.7c0.3-1.5,1-2.7,2.1-3.6c1.1-0.9,2.4-1.4,3.9-1.4s2.5,0.5,3.1,1.4
			l0.3-1.1h3.9L256.3,74.9z M249.6,71.7c0.3,0.4,0.8,0.6,1.4,0.6c0.6,0,1.2-0.2,1.6-0.6c0.5-0.4,0.8-0.9,0.9-1.5
			c0.1-0.6,0-1.1-0.4-1.5c-0.3-0.4-0.8-0.6-1.4-0.6c-0.6,0-1.2,0.2-1.6,0.6c-0.4,0.4-0.7,0.9-0.8,1.5
			C249.1,70.8,249.2,71.3,249.6,71.7z"/>
		<path class="st2" d="M268.5,66.9c0.9,1.2,1.1,2.7,0.8,4.7h-7.4c0.1,1.1,0.7,1.6,1.7,1.6c0.9,0,1.6-0.4,2-1.1l3.4,0.7
			c-0.6,1.1-1.3,1.9-2.3,2.5c-1,0.6-2.1,0.8-3.3,0.8c-1.5,0-2.8-0.4-3.7-1.3c-0.9-0.9-1.4-2.1-1.4-3.5c0-1.8,0.6-3.3,1.9-4.4
			c1.3-1.2,2.8-1.8,4.6-1.8C266.3,65.2,267.6,65.8,268.5,66.9z M265.9,69.5c-0.1-0.9-0.6-1.4-1.6-1.4c-0.9,0-1.6,0.5-2.1,1.4H265.9z
			"/>
	</g>
</g>
</svg>
